PathFileType	4	(X/Y/Z)	C:\Users\WrightLab\Desktop\Jo\P1.2Trial3.trc
DataRate	CameraRate	NumFrames	NumMarkers	Units	OrigDataRate	OrigDataStartFrame	OrigNumFrames
100.00	100.00	       10	19	mm	100.00	412	       658
Frame#	Time	Headset_Front			Headset_Back			Headset_Left			Headset_Right			Left_Shoulder			Right_Shoulder			Sternum			C7			Left Elbow			Right Elbow			Left Wrist			Right Wrist			Left ASIS			Right ASIS			S2			Left Knee			Right Knee			Left Ankle			Right Ankle			
		X1	Y1	Z1	X2	Y2	Z2	X3	Y3	Z3	X4	Y4	Z4	X5	Y5	Z5	X6	Y6	Z6	X7	Y7	Z7	X8	Y8	Z8	X9	Y9	Z9	X10	Y10	Z10	X11	Y11	Z11	X12	Y12	Z12	X13	Y13	Z13	X14	Y14	Z14	X15	Y15	Z15	X16	Y16	Z16	X17	Y17	Z17	X18	Y18	Z18	X19	Y19	Z19	

412	4.110	-35.66996	1415.35132	950.55536	-95.03667	1513.40430	667.67401	38.37906	1465.82458	759.46899	-162.10483	1440.25623	870.32410	125.85191	1255.67676	652.84070	-258.69092	1248.39832	829.10840	-10.70437	1197.50635	854.33533	-116.21394	1301.70459	637.48981	190.74228	969.49011	616.46722	-332.49091	995.84406	791.34131	303.53992	782.57977	719.55951	-386.18982	749.10791	854.53210	114.94430	897.16766	772.79333	-112.99452	868.49194	910.23022	-141.33702	903.57593	590.98035	134.59853	442.52142	660.54700	-27.95198	466.18430	928.38013	-29.25386	185.42822	429.33087	3.76328	122.75302	939.92621	
413	4.120	-32.74942	1417.10095	959.85492	-91.59705	1514.80994	677.23566	41.63397	1468.62146	769.66388	-159.10980	1441.19006	879.29578	131.14163	1257.32837	663.32458	-253.93747	1250.77759	838.98749	-6.94375	1199.57666	864.16046	-110.96040	1303.19519	645.62573	191.64633	970.65674	625.19684	-326.53061	997.74213	802.55536	301.39859	781.88647	725.19452	-378.06436	751.27234	867.72394	118.82212	898.81848	785.54913	-109.82906	871.29065	920.34656	-137.57719	905.44299	601.50806	151.32253	446.20090	678.97766	-25.32667	468.31448	936.97668	-17.01564	193.30205	444.93112	5.50654	120.81522	942.06964	
414	4.130	-30.50138	1418.53198	969.51984	-87.88895	1516.43970	686.61279	44.92738	1471.15784	779.93866	-156.44273	1441.96497	888.26880	135.32014	1258.81946	672.48676	-249.43132	1253.45801	848.27057	-2.11312	1201.20007	873.33716	-106.58543	1304.99438	654.96838	192.41890	970.62689	636.08136	-321.50540	999.98792	813.95276	301.28476	781.57471	733.42822	-370.00836	753.54468	881.62195	122.21314	899.90881	796.86688	-107.55853	874.28473	931.42383	-134.10651	907.24323	611.12207	168.18468	450.13678	699.66797	-23.68052	470.01001	946.40576	-4.43717	201.94905	461.16931	6.24489	120.28883	945.18658	
415	4.140	-28.08555	1420.25928	979.36426	-84.35239	1518.19922	696.14624	48.65971	1473.50378	789.86084	-152.51085	1442.66553	896.60388	140.52113	1259.60693	681.63806	-244.19199	1255.68164	856.41589	2.36102	1202.88794	882.49390	-101.15854	1306.40833	663.45465	193.55505	971.92401	644.12854	-316.98926	1002.62634	825.89783	300.77704	781.40759	740.87268	-362.30453	755.89197	896.84180	126.69401	901.47321	808.07141	-105.14980	877.11774	941.63715	-131.25069	909.44562	621.21814	183.34477	454.26791	722.18005	-23.69717	470.14029	950.29578	8.64825	209.90057	478.88184	7.61853	119.98417	947.59100	
416	4.150	-25.65518	1421.86597	988.21045	-79.77816	1519.92029	704.41583	52.15123	1475.96863	800.36847	-149.86902	1443.01440	904.70929	145.41191	1261.24475	691.56714	-239.91048	1258.45190	865.88989	6.94469	1204.83093	891.39496	-97.19134	1309.18726	671.39520	194.83688	972.36609	653.55768	-313.00293	1005.71552	837.31647	300.74146	781.50128	748.63806	-354.92560	758.71759	912.23627	129.91010	902.15063	818.58954	-102.68479	879.46661	951.63690	-127.82914	911.28094	631.71875	196.97023	457.53528	745.24939	-22.70481	471.58511	959.15869	21.70010	218.08771	496.83072	8.29553	120.20909	949.41144	
417	4.160	-22.46939	1423.07520	997.22668	-76.02640	1521.19226	713.55750	55.89207	1477.82336	809.40332	-146.73625	1443.89966	913.51868	150.33255	1261.83765	701.26166	-236.97458	1263.70935	875.36780	10.63100	1206.48010	899.92499	-91.64088	1310.35889	679.08398	196.40858	972.89905	663.00970	-309.82672	1008.76520	848.43872	300.97418	782.26770	757.06140	-347.78833	761.96802	928.04730	134.11195	902.55743	828.76672	-100.64992	881.77893	962.22827	-125.31214	913.31769	641.97131	208.99512	461.74243	769.96979	-23.40403	471.35553	964.18695	33.51742	225.75107	515.65503	9.49012	118.96815	950.31036	
418	4.170	-19.48023	1424.52588	1006.10425	-71.85029	1522.27783	722.03522	59.31037	1480.24231	818.88379	-143.52766	1445.09790	921.43231	154.60753	1262.24207	710.09216	-233.30266	1266.81482	883.91644	14.72325	1208.18884	909.21411	-87.46068	1311.99292	687.80072	199.01073	973.36627	671.90521	-306.74167	1011.56946	860.44519	303.49783	783.14197	766.97705	-340.36972	765.44672	943.92566	138.34496	903.09344	839.07373	-99.29202	884.91486	972.36914	-121.96167	915.47211	651.41528	219.68202	465.14096	794.81903	-23.97758	471.23810	970.75922	44.98836	234.09895	534.46423	9.38470	118.31823	950.94580	
419	4.180	-16.89829	1426.04492	1015.20660	-67.50514	1524.43652	730.76093	63.42973	1481.61829	829.08099	-140.06096	1446.24768	929.51373	159.37160	1263.32666	718.97009	-228.73256	1269.25659	891.85400	19.02202	1209.99243	917.71942	-82.25549	1313.33826	695.78516	202.07484	973.68219	679.51923	-303.69070	1014.69714	871.45874	306.41467	782.41351	778.12164	-333.68219	768.59534	960.86450	141.66554	904.12067	848.87372	-97.12390	886.65961	982.68689	-118.52384	916.75769	661.50305	228.06239	468.91470	820.22809	-25.27448	471.04617	979.51782	57.91008	240.07336	554.39343	8.19548	116.98864	952.04553	
420	4.190	-14.41638	1427.82788	1023.74115	-62.93295	1525.65271	739.00525	66.89709	1482.98926	837.47302	-136.57397	1447.70947	937.70483	164.00922	1263.83984	728.78827	-225.64285	1271.96191	899.99908	23.14507	1211.40051	926.29651	-77.42429	1314.15393	703.84656	204.76248	974.23309	690.16534	-300.61499	1017.13062	882.15668	309.73792	782.59131	788.99518	-327.58560	772.14130	978.19104	145.31509	904.75470	859.34656	-95.01151	888.89197	992.35339	-114.98791	918.29016	671.53766	234.95982	472.18808	843.58167	-27.25047	470.21967	983.23169	70.59216	244.80147	574.61914	6.42973	115.57143	951.84784	
421	4.200	-11.82761	1429.36340	1032.74292	-58.79855	1527.02307	747.92407	70.85606	1484.99500	846.77045	-133.02411	1449.10876	945.59387	167.86781	1264.02917	737.28497	-221.17767	1273.67175	907.23096	27.27891	1212.14514	935.16119	-72.86069	1315.52979	712.40894	208.68324	974.23718	699.17352	-298.29425	1019.88055	892.80920	313.42722	782.64722	800.10162	-321.59909	776.02368	995.52594	148.53520	904.52350	868.84039	-93.56349	890.84991	1002.81067	-111.04411	919.24982	680.89825	242.30006	479.05478	864.35083	-29.11180	470.18790	990.49707	83.92898	248.46722	594.43188	5.55629	114.59134	951.62195	
